<?xml version="1.0" encoding="UTF-8"?>
<svg width="629px" height="667px" viewBox="0 0 629 667" version="1.1" xmlns="http://www.w3.org/2000/svg" xmlns:xlink="http://www.w3.org/1999/xlink">
    <title>Slice 1</title>
    <defs>
        <linearGradient x1="132.8%" y1="53.5%" x2="-31.9%" y2="-21.5%" id="linearGradient-1">
            <stop stop-color="#FFFFFF" offset="0%"></stop>
            <stop stop-color="#EFEEEE" offset="100%"></stop>
        </linearGradient>
    </defs>
    <g id="Page-1" stroke="none" stroke-width="1" fill="none" fill-rule="evenodd">
        <g id="blob_1" transform="translate(-92.000000, -69.000000)" fill="url(#linearGradient-1)" fill-rule="nonzero">
            <path d="M604.791047,240.425278 C657.091047,258.014278 715.878047,287.174278 744.112047,335.312278 C772.346047,383.450278 770.032047,450.565278 744.575047,504.719278 C719.116047,558.411278 670.516047,599.143278 619.140047,637.560278 C568.225047,675.978278 514.533047,712.543278 446.493047,732.447278 C378.452047,751.887278 296.063047,755.127278 239.593047,718.098278 C183.124047,681.532278 152.116047,605.160278 131.747047,528.325278 C111.378047,451.490278 101.198047,374.655278 117.861047,301.060278 C134.061047,227.465278 176.644047,156.647278 238.205047,141.836278 C299.766047,127.025278 380.303047,168.219278 443.716047,192.288278 C506.665047,215.893278 552.488047,222.374278 604.791047,240.425278 Z" id="Path" transform="translate(436.999520, 442.679684) rotate(54.970000) translate(-436.999520, -442.679684) "></path>
        </g>
    </g>
</svg>