<svg xmlns="http://www.w3.org/2000/svg" width="761.094" height="706.462" viewBox="0 0 761.094 706.462">
    <path fill="#ff5821" d="M109.666 57.828C48.887 78.267-19.421 112.152-52.23 168.09s-30.12 133.927-.538 196.857c29.582 62.392 86.057 109.723 145.76 154.366 59.165 44.642 121.556 87.133 200.622 110.261 79.065 22.59 174.8 26.355 240.423-16.674 65.619-42.491 101.655-131.238 125.321-220.522s35.5-178.569 16.136-264.089C656.668 42.768 607.185-39.524 535.65-56.736S370.527-26.078 296.841 1.891c-73.149 27.431-126.397 34.961-187.175 55.937z" transform="translate(75.903 60.377)"/>
</svg>
