<?xml version="1.0" encoding="UTF-8"?>
<svg width="542px" height="545px" viewBox="0 0 542 545" version="1.1" xmlns="http://www.w3.org/2000/svg" xmlns:xlink="http://www.w3.org/1999/xlink">
    <title>Slice 1</title>
    <g id="Page-1" stroke="none" stroke-width="1" fill="none" fill-rule="evenodd">
        <g id="blob_5" transform="translate(-145.000000, -116.000000)" fill="#FF5821" fill-rule="nonzero">
            <path d="M232.233143,205.633444 C188.157143,220.456444 138.616143,245.030444 114.822143,285.598444 C91.0281426,326.166444 92.9781426,382.725444 114.432143,428.363444 C135.886143,473.611444 176.843143,507.937444 220.141143,540.313444 C263.049143,572.689444 308.297143,603.504444 365.641143,620.277444 C422.981143,636.660444 492.413143,639.390444 540.002143,608.185444 C587.590143,577.370444 613.725143,513.008444 630.888143,448.257444 C648.051143,383.506444 656.633143,318.757444 642.588143,256.733444 C628.933143,194.712444 593.047143,135.031444 541.168143,122.549444 C489.289143,110.067444 421.416143,144.785444 367.977143,165.066444 C314.928143,184.960444 276.311143,190.421444 232.233143,205.633444 Z" id="Path" transform="translate(373.638262, 376.080475) rotate(50.000000) translate(-373.638262, -376.080475) "></path>
        </g>
    </g>
</svg>